<svg width="40" height="40" viewBox="0 0 40 34" fill="none" xmlns="http://www.w3.org/2000/svg">
<g clip-path="url(#clip0_13003_334)">
<path d="M31.1166 2.7373H29.6988C29.1418 2.7373 28.6355 2.78758 28.1291 2.88813C28.2304 3.3406 28.2811 3.84335 28.2811 4.3461V11.7365C28.2811 15.2557 25.3949 18.0711 21.901 18.0711H21.4453V25.0593C21.4453 29.584 25.1417 33.2541 29.6988 33.2541H31.1166C35.6738 33.2541 39.3701 29.584 39.3701 25.0593V10.9321C39.4208 6.40736 35.6738 2.7373 31.1166 2.7373Z" fill="#EA5326"/>
<path d="M21.8995 0.474609H17.1399C15.6208 0.474609 14.203 0.826533 12.9371 1.53038C10.1016 2.98835 8.12681 5.90428 8.02554 9.27269H1.3417C0.936623 9.27269 0.632812 9.57434 0.632812 9.97654V25.9639C0.632812 26.3661 0.936623 26.6678 1.3417 26.6678H8.32935C9.44332 30.4384 12.9371 33.2035 17.0892 33.2035H22.7603C20.3805 31.2428 18.9121 28.2765 18.9121 25.0087V17.6686C16.431 16.7636 14.6587 14.451 14.6587 11.6859V9.07159H17.1905V11.6859C17.1905 13.7974 18.9121 15.5068 21.0388 15.5068H21.8489C23.9756 15.5068 25.6972 13.7974 25.6972 11.6859V4.34577C25.7985 2.23423 24.0262 0.474609 21.8995 0.474609Z" fill="#EB2926"/>
</g>
<defs>
<clipPath id="clip0_13003_334">
<rect width="38.7364" height="32.7791" fill="white" transform="translate(0.632812 0.474609)"/>
</clipPath>
</defs>
</svg>
