<svg width="107" height="62" viewBox="0 0 107 62" fill="none" xmlns="http://www.w3.org/2000/svg">
<g clip-path="url(#clip0_11192_1929)">
<path d="M61.1977 22.1445H60.1958C59.8022 22.1445 59.4443 22.1802 59.0865 22.2515C59.1581 22.5725 59.1939 22.9291 59.1939 23.2857V28.5277C59.1939 31.0239 57.1543 33.0208 54.6853 33.0208H54.3633V37.9776C54.3633 41.187 56.9754 43.7901 60.1958 43.7901H61.1977C64.4181 43.7901 67.0302 41.187 67.0302 37.9776V27.9571C67.0659 24.7477 64.4181 22.1445 61.1977 22.1445Z" fill="#EA5326"/>
<path d="M54.6847 20.54H51.3212C50.2478 20.54 49.2459 20.7897 48.3513 21.2889C46.3475 22.323 44.952 24.3913 44.8804 26.7805H40.1572C39.8709 26.7805 39.6562 26.9945 39.6562 27.2798V38.6197C39.6562 38.9049 39.8709 39.1189 40.1572 39.1189H45.0951C45.8823 41.7934 48.3513 43.7547 51.2854 43.7547H55.293C53.6113 42.364 52.5736 40.26 52.5736 37.9421V32.7358C50.8203 32.0939 49.5679 30.4535 49.5679 28.4922V26.6379H51.357V28.4922C51.357 29.9899 52.5736 31.2024 54.0764 31.2024H54.649C56.1518 31.2024 57.3684 29.9899 57.3684 28.4922V23.2859C57.44 21.7881 56.1876 20.54 54.6847 20.54Z" fill="#EB2926"/>
</g>
<g clip-path="url(#clip1_11192_1929)">
<path d="M29.2112 59.9277C28.7022 59.9277 28.2511 59.8115 27.8577 59.5791C27.4643 59.3487 27.1571 59.0274 26.9361 58.6152C26.7131 58.205 26.6016 57.7331 26.6016 57.1996C26.6016 56.6621 26.7111 56.1893 26.93 55.7811C27.1511 55.3709 27.4552 55.0506 27.8425 54.8202C28.2298 54.5878 28.6779 54.4716 29.1869 54.4716C29.6958 54.4716 30.146 54.5888 30.5373 54.8232C30.9266 55.0576 31.2298 55.3789 31.4467 55.7871C31.6637 56.1973 31.7722 56.6682 31.7722 57.1996C31.7722 57.7331 31.6637 58.205 31.4467 58.6152C31.2298 59.0274 30.9286 59.3487 30.5434 59.5791C30.1581 59.8115 29.7141 59.9277 29.2112 59.9277ZM29.2112 59.3457C29.5883 59.3457 29.9209 59.2548 30.2088 59.0729C30.4947 58.889 30.7198 58.6364 30.884 58.3151C31.0483 57.9938 31.1304 57.622 31.1304 57.1996C31.1304 56.7834 31.0473 56.4136 30.881 56.0902C30.7147 55.7649 30.4866 55.5113 30.1966 55.3294C29.9067 55.1455 29.5701 55.0536 29.1869 55.0536C28.8097 55.0536 28.4751 55.1455 28.1832 55.3294C27.8912 55.5113 27.662 55.7649 27.4958 56.0902C27.3295 56.4136 27.2464 56.7834 27.2464 57.1996C27.2464 57.622 27.3295 57.9938 27.4958 58.3151C27.662 58.6364 27.8932 58.889 28.1892 59.0729C28.4873 59.2548 28.828 59.3457 29.2112 59.3457ZM33.2534 59.8367H32.6481V56.069H33.2169L33.2534 56.7632V59.8367ZM35.9086 59.8367H35.3034V57.9089H35.9086V59.8367ZM35.9086 57.9089H35.3034C35.3034 57.5371 35.2608 57.2532 35.1756 57.0572C35.0884 56.8612 34.9698 56.7268 34.8198 56.654C34.6677 56.5813 34.4964 56.5449 34.3058 56.5449C33.9732 56.5449 33.7147 56.6611 33.5302 56.8935C33.3456 57.1279 33.2534 57.4583 33.2534 57.8847H32.9584C32.9584 57.4886 33.0172 57.1471 33.1348 56.8602C33.2503 56.5752 33.4186 56.357 33.6397 56.2054C33.8607 56.0559 34.1273 55.9811 34.4396 55.9811C34.7376 55.9811 34.9962 56.0397 35.2152 56.1569C35.4342 56.2741 35.6055 56.4611 35.7292 56.7177C35.8529 56.9743 35.9127 57.3108 35.9086 57.7271V57.9089ZM39.3091 59.8367H38.7342V54.5626H39.3395V59.1365L39.3091 59.8367ZM40.6169 59.9277C40.2986 59.9277 40.0198 59.8448 39.7805 59.6791C39.5412 59.5134 39.3567 59.281 39.2269 58.982C39.0951 58.6829 39.0292 58.3404 39.0292 57.9544C39.0292 57.5624 39.0951 57.2178 39.2269 56.9208C39.3567 56.6258 39.5412 56.3954 39.7805 56.2297C40.0198 56.064 40.2986 55.9811 40.6169 55.9811C40.9535 55.9811 41.2506 56.064 41.5081 56.2297C41.7656 56.3954 41.9663 56.6258 42.1103 56.9208C42.2543 57.2178 42.3263 57.5624 42.3263 57.9544C42.3263 58.3404 42.2543 58.6829 42.1103 58.982C41.9663 59.281 41.7656 59.5134 41.5081 59.6791C41.2506 59.8448 40.9535 59.9277 40.6169 59.9277ZM40.4801 59.376C40.7173 59.376 40.9282 59.3164 41.1127 59.1972C41.2952 59.0759 41.4412 58.9072 41.5507 58.691C41.6581 58.4747 41.7119 58.2292 41.7119 57.9544C41.7119 57.6776 41.6602 57.431 41.5568 57.2148C41.4533 56.9986 41.3084 56.8309 41.1218 56.7116C40.9353 56.5904 40.7244 56.5298 40.4892 56.5298C40.2661 56.5298 40.0684 56.5904 39.8961 56.7116C39.7217 56.8309 39.5848 56.9986 39.4855 57.2148C39.3881 57.431 39.3395 57.6776 39.3395 57.9544C39.3395 58.2292 39.3881 58.4747 39.4855 58.691C39.5848 58.9072 39.7197 59.0759 39.89 59.1972C40.0624 59.3164 40.259 59.376 40.4801 59.376ZM46.0521 59.8367H45.4925L45.4621 59.2184V57.8483C45.4621 57.5513 45.4296 57.3067 45.3647 57.1148C45.2978 56.9208 45.1944 56.7733 45.0545 56.6722C44.9126 56.5712 44.7281 56.5207 44.501 56.5207C44.2941 56.5207 44.1167 56.5621 43.9687 56.6449C43.8207 56.7278 43.699 56.8602 43.6037 57.042L43.0593 56.8298C43.1546 56.654 43.2701 56.5025 43.406 56.3752C43.5419 56.2479 43.701 56.1499 43.8835 56.0812C44.064 56.0145 44.2698 55.9811 44.501 55.9811C44.8538 55.9811 45.1447 56.0498 45.3739 56.1872C45.603 56.3247 45.7764 56.5277 45.894 56.7965C46.0096 57.0653 46.0643 57.3977 46.0582 57.7938L46.0521 59.8367ZM44.358 59.9277C43.9139 59.9277 43.5672 59.8256 43.3178 59.6215C43.0684 59.4174 42.9437 59.1355 42.9437 58.7758C42.9437 58.3939 43.0714 58.1009 43.3269 57.8968C43.5804 57.6927 43.9373 57.5907 44.3975 57.5907H45.4773V58.0969H44.5314C44.1786 58.0969 43.9281 58.1545 43.7801 58.2696C43.6321 58.3848 43.5581 58.5505 43.5581 58.7667C43.5581 58.9628 43.6311 59.1174 43.7771 59.2305C43.9231 59.3437 44.1268 59.4003 44.3884 59.4003C44.6054 59.4003 44.794 59.3538 44.9541 59.2608C45.1164 59.1679 45.2411 59.0345 45.3282 58.8607C45.4175 58.6869 45.4621 58.4828 45.4621 58.2484H45.7176C45.7176 58.7597 45.602 59.1669 45.3708 59.47C45.1397 59.7751 44.8021 59.9277 44.358 59.9277ZM48.3424 59.9277C48.0646 59.9277 47.8223 59.8863 47.6155 59.8034C47.4087 59.7206 47.2363 59.6114 47.0984 59.476C46.9605 59.3406 46.8612 59.1921 46.8004 59.0305L47.3296 58.8122C47.4147 58.982 47.5435 59.1204 47.7158 59.2275C47.8862 59.3326 48.0747 59.3851 48.2816 59.3851C48.5188 59.3851 48.7175 59.3386 48.8777 59.2457C49.0399 59.1527 49.121 59.0204 49.121 58.8486C49.121 58.693 49.0612 58.5677 48.9416 58.4727C48.824 58.3778 48.6496 58.3 48.4184 58.2393L48.0535 58.1423C47.7108 58.0514 47.4441 57.914 47.2535 57.7301C47.0609 57.5482 46.9646 57.3411 46.9646 57.1087C46.9646 56.7531 47.0822 56.4762 47.3174 56.2782C47.5526 56.0801 47.9014 55.9811 48.3637 55.9811C48.5867 55.9811 48.7885 56.0135 48.969 56.0781C49.1515 56.1428 49.3076 56.2347 49.4374 56.354C49.5692 56.4712 49.6655 56.6096 49.7263 56.7692L49.1971 57.0057C49.1302 56.8339 49.0217 56.7106 48.8716 56.6359C48.7196 56.5591 48.535 56.5207 48.3181 56.5207C48.0869 56.5207 47.9054 56.5702 47.7736 56.6692C47.6439 56.7662 47.579 56.9026 47.579 57.0784C47.579 57.1794 47.6327 57.2744 47.7402 57.3633C47.8497 57.4502 48.0099 57.5209 48.2207 57.5755L48.5979 57.6755C48.8453 57.7362 49.0521 57.8251 49.2184 57.9423C49.3846 58.0595 49.5103 58.1939 49.5955 58.3454C49.6827 58.495 49.7263 58.6556 49.7263 58.8274C49.7263 59.0537 49.6655 59.2497 49.5438 59.4154C49.4221 59.5811 49.2579 59.7074 49.0511 59.7943C48.8463 59.8832 48.6101 59.9277 48.3424 59.9277ZM53.0142 59.8367H52.4089V54.5626H53.0142V59.8367ZM55.7272 59.9277C55.3582 59.9277 55.0328 59.8438 54.7509 59.6761C54.4691 59.5063 54.2491 59.274 54.0909 58.9789C53.9327 58.6819 53.8537 58.3404 53.8537 57.9544C53.8537 57.5664 53.9327 57.2249 54.0909 56.9299C54.2491 56.6328 54.468 56.4004 54.7479 56.2327C55.0277 56.065 55.3491 55.9811 55.712 55.9811C56.0648 55.9811 56.37 56.067 56.6275 56.2388C56.883 56.4126 57.0817 56.6551 57.2237 56.9662C57.3636 57.2774 57.4335 57.6442 57.4335 58.0666H54.3129L54.465 57.9392C54.465 58.2403 54.5187 58.499 54.6262 58.7152C54.7357 58.9314 54.8888 59.0951 55.0855 59.2063C55.2822 59.3194 55.5062 59.376 55.7576 59.376C56.0233 59.376 56.2483 59.3134 56.4329 59.1881C56.6174 59.0628 56.7603 58.8971 56.8617 58.691L57.3818 58.9547C57.2865 59.1507 57.1598 59.3214 57.0016 59.4669C56.8414 59.6124 56.6549 59.7256 56.442 59.8064C56.2271 59.8873 55.9888 59.9277 55.7272 59.9277ZM54.5015 57.6816L54.3433 57.5604H56.9499L56.7918 57.6907C56.7918 57.4482 56.7441 57.2391 56.6488 57.0632C56.5535 56.8874 56.4248 56.752 56.2625 56.6571C56.1024 56.5621 55.9158 56.5146 55.7029 56.5146C55.4961 56.5146 55.3014 56.5621 55.1189 56.6571C54.9344 56.752 54.7854 56.8864 54.6718 57.0602C54.5583 57.234 54.5015 57.4411 54.5015 57.6816ZM59.52 59.9277C59.2443 59.9277 59.003 59.8863 58.7961 59.8034C58.5893 59.7206 58.417 59.6114 58.2791 59.476C58.1392 59.3406 58.0388 59.1921 57.978 59.0305L58.5072 58.8122C58.5944 58.982 58.7231 59.1204 58.8935 59.2275C59.0658 59.3326 59.2554 59.3851 59.4622 59.3851C59.6974 59.3851 59.8962 59.3386 60.0584 59.2457C60.2186 59.1527 60.2986 59.0204 60.2986 58.8486C60.2986 58.693 60.2398 58.5677 60.1222 58.4727C60.0046 58.3778 59.8292 58.3 59.5961 58.2393L59.2341 58.1423C58.8914 58.0514 58.6248 57.914 58.4342 57.7301C58.2416 57.5482 58.1452 57.3411 58.1452 57.1087C58.1452 56.7531 58.2629 56.4762 58.4981 56.2782C58.7313 56.0801 59.08 55.9811 59.5443 55.9811C59.7654 55.9811 59.9671 56.0135 60.1496 56.0781C60.3301 56.1428 60.4862 56.2347 60.618 56.354C60.7478 56.4712 60.8431 56.6096 60.9039 56.7692L60.3747 57.0057C60.3098 56.8339 60.2013 56.7106 60.0492 56.6359C59.8992 56.5591 59.7157 56.5207 59.4987 56.5207C59.2676 56.5207 59.0861 56.5702 58.9543 56.6692C58.8225 56.7662 58.7566 56.9026 58.7566 57.0784C58.7566 57.1794 58.8113 57.2744 58.9208 57.3633C59.0283 57.4502 59.1885 57.5209 59.4014 57.5755L59.7785 57.6755C60.0259 57.7362 60.2327 57.8251 60.399 57.9423C60.5653 58.0595 60.691 58.1939 60.7762 58.3454C60.8613 58.495 60.9039 58.6556 60.9039 58.8274C60.9039 59.0537 60.8441 59.2497 60.7245 59.4154C60.6028 59.5811 60.4386 59.7074 60.2317 59.7943C60.0249 59.8832 59.7877 59.9277 59.52 59.9277ZM64.2313 61.3432H63.6261V56.069H64.1918L64.2313 56.7632V61.3432ZM65.5088 59.9277C65.1904 59.9277 64.9116 59.8448 64.6724 59.6791C64.4331 59.5134 64.2476 59.281 64.1158 58.982C63.986 58.6829 63.9211 58.3404 63.9211 57.9544C63.9211 57.5624 63.986 57.2178 64.1158 56.9208C64.2476 56.6258 64.4331 56.3954 64.6724 56.2297C64.9116 56.064 65.1904 55.9811 65.5088 55.9811C65.8454 55.9811 66.1424 56.064 66.4 56.2297C66.6575 56.3954 66.8582 56.6258 67.0022 56.9208C67.1441 57.2178 67.2151 57.5624 67.2151 57.9544C67.2151 58.3404 67.1441 58.6829 67.0022 58.982C66.8582 59.281 66.6575 59.5134 66.4 59.6791C66.1424 59.8448 65.8454 59.9277 65.5088 59.9277ZM65.3719 59.376C65.6092 59.376 65.819 59.3164 66.0015 59.1972C66.186 59.0759 66.333 58.9072 66.4425 58.691C66.55 58.4747 66.6037 58.2292 66.6037 57.9544C66.6037 57.6776 66.552 57.431 66.4486 57.2148C66.3452 56.9986 66.2002 56.8309 66.0137 56.7116C65.8271 56.5904 65.6152 56.5298 65.378 56.5298C65.157 56.5298 64.9593 56.5904 64.7849 56.7116C64.6125 56.8309 64.4767 56.9986 64.3773 57.2148C64.28 57.431 64.2313 57.6776 64.2313 57.9544C64.2313 58.2292 64.28 58.4747 64.3773 58.691C64.4767 58.9072 64.6115 59.0759 64.7819 59.1972C64.9542 59.3164 65.1509 59.376 65.3719 59.376ZM68.6598 57.7665L68.3891 57.7938C68.3891 57.3876 68.4672 57.0582 68.6233 56.8056C68.7794 56.551 68.9792 56.362 69.2225 56.2388C69.4678 56.1155 69.7264 56.0539 69.9981 56.0539V56.6207C69.7771 56.6207 69.5642 56.6571 69.3594 56.7298C69.1546 56.8026 68.9873 56.9218 68.8575 57.0875C68.7257 57.2532 68.6598 57.4795 68.6598 57.7665ZM68.6598 59.8367H68.0545V56.069H68.6598V59.8367ZM71.2512 59.8367H70.649V56.069H71.2512V59.8367ZM70.9592 55.1961C70.8578 55.1961 70.7696 55.1587 70.6946 55.0839C70.6175 55.0091 70.579 54.9212 70.579 54.8202C70.579 54.7151 70.6175 54.6262 70.6946 54.5535C70.7696 54.4807 70.8578 54.4443 70.9592 54.4443C71.0646 54.4443 71.1539 54.4807 71.2269 54.5535C71.2999 54.6262 71.3364 54.7151 71.3364 54.8202C71.3364 54.9212 71.2999 55.0091 71.2269 55.0839C71.1539 55.1587 71.0646 55.1961 70.9592 55.1961ZM72.6442 59.8367H71.9112L73.4533 57.6755L74.5421 56.069H75.2599L73.8213 58.1029L72.6442 59.8367ZM75.3481 59.8367H74.6242L73.4593 58.1029L72.0085 56.069H72.7263L73.8213 57.6755L75.3481 59.8367Z" fill="#F8FAFC"/>
</g>
<g clip-path="url(#clip2_11192_1929)">
<path d="M11.5691 20.679C10.2454 21.1048 8.98138 21.1854 7.7771 20.9209C6.57475 20.6558 5.51592 20.1003 4.60063 19.2544C3.68665 18.406 3.01167 17.3088 2.57568 15.9626C2.1397 14.6165 2.04361 13.333 2.28742 12.1122C2.53379 10.8926 3.06693 9.82505 3.88687 8.90942C4.70873 7.99316 5.78153 7.32213 7.10527 6.89632C8.07396 6.58473 9.01707 6.46716 9.93459 6.54362C10.8521 6.62008 11.7055 6.86687 12.4947 7.28401C13.2846 7.70306 13.9682 8.26138 14.5457 8.95896L11.9748 10.8593C11.6398 10.4766 11.2567 10.1719 10.8254 9.94545C10.3941 9.71896 9.94237 9.58398 9.47019 9.54051C8.99994 9.49642 8.51589 9.55444 8.01804 9.71458C7.31757 9.9399 6.74973 10.3115 6.3145 10.8295C5.87734 11.3481 5.60501 11.9644 5.4975 12.6785C5.39192 13.392 5.46868 14.1487 5.72778 14.9487C5.98688 15.7487 6.37239 16.4061 6.8843 16.9209C7.39428 17.4364 7.98382 17.7797 8.65292 17.951C9.31946 18.1209 10.0088 18.0913 10.7208 17.8623C11.2437 17.6941 11.678 17.4493 12.0235 17.1279C12.369 16.8066 12.6358 16.4267 12.824 15.9881C13.0123 15.5496 13.1435 15.0732 13.2177 14.5588L16.4145 14.6007C16.3731 15.5122 16.1529 16.3719 15.754 17.1797C15.3532 17.9881 14.8011 18.6945 14.0976 19.2987C13.3942 19.9029 12.5513 20.363 11.5691 20.679Z" fill="#F8FAFC"/>
<path d="M24.3853 17.0104L21.3176 17.628L18.5352 3.90137L21.6029 3.28376L24.3853 17.0104ZM30.7236 15.7344L27.6528 16.3526L26.635 11.3314L29.7058 10.7132L30.7236 15.7344ZM29.7058 10.7132L26.635 11.3314C26.529 10.8084 26.3863 10.4053 26.2068 10.1219C26.0253 9.83886 25.8088 9.64845 25.5573 9.55065C25.3054 9.45087 25.027 9.42446 24.7221 9.47141C24.1293 9.57837 23.7157 9.82864 23.481 10.2222C23.2464 10.6158 23.1981 11.1533 23.3362 11.8347L22.412 12.0207C22.2024 10.9868 22.1822 10.0755 22.3512 9.28694C22.5183 8.49876 22.8356 7.85971 23.3031 7.36977C23.771 6.88181 24.3587 6.5666 25.0663 6.42415C25.8673 6.2629 26.5684 6.28771 27.1697 6.49857C27.7733 6.71102 28.2756 7.11706 28.6764 7.71669C29.0792 8.31592 29.384 9.12558 29.5907 10.1457L29.7058 10.7132Z" fill="#F8FAFC"/>
<path d="M39.3851 14.9155C38.3462 15.0204 37.4047 14.891 36.5607 14.5273C35.7166 14.1636 35.0279 13.6136 34.4946 12.8773C33.963 12.1389 33.6453 11.2589 33.5415 10.2376C33.4363 9.20222 33.574 8.27028 33.9545 7.44178C34.3327 6.61148 34.8991 5.93788 35.6537 5.42098C36.408 4.90207 37.3117 4.58948 38.3648 4.48321C39.3089 4.38793 40.1841 4.52708 40.9905 4.90068C41.795 5.27649 42.4653 5.88621 43.0014 6.72985C43.5375 7.57349 43.873 8.65877 44.0078 9.98569L36.4972 10.7437L36.8008 10.3322C36.8466 10.7825 36.9798 11.1712 37.2006 11.4983C37.4211 11.8234 37.7069 12.0586 38.0579 12.2039C38.409 12.3493 38.7913 12.4011 39.2049 12.3593C39.6971 12.3096 40.1025 12.158 40.4212 11.9045C40.7381 11.6531 40.9462 11.3549 41.0456 11.0097L43.8974 11.6664C43.6944 12.3165 43.3708 12.8722 42.9265 13.3334C42.482 13.7926 41.9571 14.1533 41.352 14.4154C40.7448 14.6778 40.0892 14.8445 39.3851 14.9155ZM36.748 9.0305L36.3868 8.66479L40.8624 8.21312L40.6214 8.6396C40.5713 8.14703 40.4316 7.76507 40.2023 7.4937C39.973 7.22234 39.7056 7.03809 39.4002 6.94095C39.095 6.84582 38.7962 6.81301 38.5037 6.84253C38.2111 6.87205 37.9209 6.96431 37.633 7.11929C37.3473 7.27608 37.1154 7.51073 36.9372 7.82322C36.761 8.1355 36.698 8.53793 36.748 9.0305Z" fill="#F8FAFC"/>
<path d="M55.4625 13.9621L47.0532 14.0588L47.0278 11.8583L51.462 6.54491L46.9669 6.59657L46.9375 4.05664L55.3255 3.96024L55.3509 6.16071L50.8957 11.4925L55.4333 11.4404L55.4625 13.9621Z" fill="#F8FAFC"/>
<path d="M70.8229 15.0948L67.6326 14.7246L68.9141 3.75622L64.8477 3.28433L65.1914 0.342773L76.5145 1.65677L76.1709 4.59832L72.1044 4.12643L70.8229 15.0948Z" fill="#F8FAFC"/>
<path d="M85.372 17.9086L82.5066 17.3036L82.8757 15.1724L83.462 12.4146C83.5729 11.8927 83.6244 11.4264 83.6164 11.0157C83.6083 10.605 83.51 10.2631 83.3215 9.98985C83.1325 9.7186 82.8029 9.53334 82.3328 9.43408C81.9658 9.35659 81.6264 9.37375 81.3145 9.48554C81.0046 9.59775 80.7196 9.78337 80.4593 10.0424L77.9745 8.59752C78.2997 8.1601 78.6973 7.78651 79.1673 7.47676C79.6373 7.16701 80.1788 6.95497 80.7917 6.84065C81.4031 6.72393 82.0827 6.74452 82.8306 6.90242C83.8502 7.1177 84.6739 7.48889 85.3018 8.016C85.9273 8.54467 86.3445 9.18531 86.5535 9.93793C86.7644 10.691 86.7713 11.5311 86.5742 12.4582L85.372 17.9086ZM79.7848 16.9737C78.6204 16.7278 77.7723 16.2761 77.2405 15.6185C76.7108 14.9613 76.5472 14.1563 76.7497 13.2035C76.9687 12.1735 77.4664 11.4751 78.2429 11.1081C79.0179 10.7388 80.0074 10.6813 81.2115 10.9355L83.9043 11.5041L83.4882 13.4612L81.9558 13.1377C81.3012 12.9995 80.8106 12.9919 80.4838 13.115C80.1556 13.2357 79.9568 13.4592 79.8874 13.7854C79.8374 14.0206 79.906 14.2293 80.0932 14.4113C80.2804 14.5934 80.5645 14.7246 80.9454 14.8051C81.3242 14.8851 81.6747 14.8744 81.9968 14.773C82.3193 14.6696 82.5919 14.4989 82.8145 14.2609C83.0356 14.0205 83.1808 13.7371 83.2502 13.411L84.0178 13.573C83.7405 14.8778 83.2508 15.831 82.5487 16.4325C81.8447 17.0337 80.9234 17.2141 79.7848 16.9737Z" fill="#F8FAFC"/>
<path d="M92.9223 20.321C91.7803 19.9795 91.0122 19.4545 90.618 18.7458C90.2243 18.0353 90.1793 17.1758 90.4829 16.1674L93.3909 6.50818L96.3916 7.40541L93.709 16.3156C93.5936 16.6988 93.5788 17.0013 93.6644 17.2232C93.7526 17.4436 93.9443 17.598 94.2395 17.6863C94.3541 17.7205 94.4968 17.7316 94.6677 17.7194C94.838 17.7091 95.0007 17.6786 95.1557 17.6279L95.5384 20.1222C95.1527 20.2853 94.7193 20.3889 94.2382 20.4328C93.7571 20.4767 93.3185 20.4394 92.9223 20.321ZM96.9259 13.5622L90.2342 11.5613L90.9903 9.04995L97.682 11.0509L96.9259 13.5622Z" fill="#F8FAFC"/>
<path d="M101.041 22.8068L98.0999 21.7324L101.554 12.3406L104.495 13.415L101.041 22.8068ZM103.466 11.6768C103.027 11.5161 102.701 11.209 102.49 10.7552C102.279 10.3015 102.254 9.85549 102.415 9.4172C102.586 8.95425 102.896 8.6233 103.347 8.42435C103.798 8.22729 104.243 8.20908 104.683 8.36972C105.134 8.53454 105.465 8.83613 105.675 9.27449C105.884 9.71475 105.904 10.1664 105.734 10.6293C105.573 11.0676 105.267 11.3929 104.818 11.6054C104.368 11.8178 103.918 11.8416 103.466 11.6768Z" fill="#F8FAFC"/>
</g>
<defs>
<clipPath id="clip0_11192_1929">
<rect width="27.3737" height="23.2503" fill="white" transform="translate(39.6562 20.54)"/>
</clipPath>
<clipPath id="clip1_11192_1929">
<rect width="48.7466" height="6.89889" fill="white" transform="translate(26.6016 54.4443)"/>
</clipPath>
<clipPath id="clip2_11192_1929">
<rect width="106" height="22.5333" fill="white" transform="translate(0.34375 0.342773)"/>
</clipPath>
</defs>
</svg>
