<svg width="150" height="86" viewBox="0 0 150 86" fill="none" xmlns="http://www.w3.org/2000/svg">
<g clip-path="url(#clip0_11192_1674)">
<path d="M86.1166 30.7373H84.6988C84.1418 30.7373 83.6355 30.7876 83.1291 30.8881C83.2304 31.3406 83.2811 31.8433 83.2811 32.3461V39.7365C83.2811 43.2557 80.3949 46.0711 76.901 46.0711H76.4453V53.0593C76.4453 57.584 80.1417 61.2541 84.6988 61.2541H86.1166C90.6738 61.2541 94.3701 57.584 94.3701 53.0593V38.9321C94.4208 34.4074 90.6738 30.7373 86.1166 30.7373Z" fill="#EA5326"/>
<path d="M76.8995 28.4746H72.1399C70.6208 28.4746 69.203 28.8265 67.9371 29.5304C65.1016 30.9883 63.1268 33.9043 63.0255 37.2727H56.3417C55.9366 37.2727 55.6328 37.5743 55.6328 37.9765V53.9639C55.6328 54.3661 55.9366 54.6678 56.3417 54.6678H63.3293C64.4433 58.4384 67.9371 61.2035 72.0892 61.2035H77.7603C75.3805 59.2428 73.9121 56.2765 73.9121 53.0087V45.6686C71.431 44.7636 69.6587 42.451 69.6587 39.6859V37.0716H72.1905V39.6859C72.1905 41.7974 73.9121 43.5068 76.0388 43.5068H76.8489C78.9756 43.5068 80.6972 41.7974 80.6972 39.6859V32.3458C80.7985 30.2342 79.0262 28.4746 76.8995 28.4746Z" fill="#EB2926"/>
</g>
<g clip-path="url(#clip1_11192_1674)">
<path d="M40.853 84.0041C40.1328 84.0041 39.4944 83.8402 38.9377 83.5126C38.3811 83.1878 37.9464 82.7348 37.6336 82.1537C37.318 81.5753 37.1602 80.9101 37.1602 80.158C37.1602 79.4002 37.3151 78.7335 37.625 78.158C37.9378 77.5797 38.3682 77.1281 38.9162 76.8033C39.4643 76.4757 40.0984 76.3119 40.8186 76.3119C41.5388 76.3119 42.1758 76.4771 42.7296 76.8076C43.2805 77.1381 43.7095 77.5911 44.0165 78.1666C44.3235 78.7449 44.477 79.4087 44.477 80.158C44.477 80.9101 44.3235 81.5753 44.0165 82.1537C43.7095 82.7348 43.2834 83.1878 42.7382 83.5126C42.193 83.8402 41.5646 84.0041 40.853 84.0041ZM40.853 83.1836C41.3867 83.1836 41.8573 83.0554 42.2648 82.7989C42.6693 82.5397 42.9878 82.1836 43.2203 81.7306C43.4527 81.2776 43.5689 80.7534 43.5689 80.158C43.5689 79.5711 43.4512 79.0497 43.216 78.5939C42.9807 78.1352 42.6579 77.7777 42.2475 77.5213C41.8372 77.262 41.3609 77.1324 40.8186 77.1324C40.2849 77.1324 39.8115 77.262 39.3983 77.5213C38.9851 77.7777 38.6608 78.1352 38.4255 78.5939C38.1903 79.0497 38.0726 79.5711 38.0726 80.158C38.0726 80.7534 38.1903 81.2776 38.4255 81.7306C38.6608 82.1836 38.9879 82.5397 39.4069 82.7989C39.8287 83.0554 40.3107 83.1836 40.853 83.1836ZM46.5731 83.8759H45.7166V78.564H46.5215L46.5731 79.5426V83.8759ZM50.3305 83.8759H49.474V81.158H50.3305V83.8759ZM50.3305 81.158H49.474C49.474 80.6337 49.4138 80.2335 49.2933 79.9571C49.1699 79.6808 49.002 79.4913 48.7897 79.3888C48.5745 79.2862 48.332 79.2349 48.0623 79.2349C47.5917 79.2349 47.2259 79.3987 46.9648 79.7264C46.7037 80.0568 46.5731 80.5226 46.5731 81.1238H46.1556C46.1556 80.5654 46.2388 80.0839 46.4053 79.6794C46.5688 79.2777 46.807 78.97 47.1197 78.7563C47.4325 78.5455 47.8098 78.4401 48.2517 78.4401C48.6735 78.4401 49.0393 78.5227 49.3492 78.6879C49.6591 78.8532 49.9016 79.1167 50.0766 79.4785C50.2516 79.8403 50.3363 80.3147 50.3305 80.9016V81.158ZM55.1425 83.8759H54.329V76.4401H55.1855V82.8887L55.1425 83.8759ZM56.9932 84.0041C56.5427 84.0041 56.1482 83.8872 55.8096 83.6536C55.471 83.42 55.2099 83.0924 55.0263 82.6707C54.8398 82.2491 54.7465 81.7662 54.7465 81.2221C54.7465 80.6694 54.8398 80.1836 55.0263 79.7648C55.2099 79.3489 55.471 79.0241 55.8096 78.7905C56.1482 78.5569 56.5427 78.4401 56.9932 78.4401C57.4695 78.4401 57.8899 78.5569 58.2543 78.7905C58.6187 79.0241 58.9028 79.3489 59.1065 79.7648C59.3102 80.1836 59.4121 80.6694 59.4121 81.2221C59.4121 81.7662 59.3102 82.2491 59.1065 82.6707C58.9028 83.0924 58.6187 83.42 58.2543 83.6536C57.8899 83.8872 57.4695 84.0041 56.9932 84.0041ZM56.7995 83.2263C57.1352 83.2263 57.4337 83.1422 57.6948 82.9742C57.953 82.8032 58.1596 82.5653 58.3146 82.2605C58.4666 81.9557 58.5427 81.6095 58.5427 81.2221C58.5427 80.8318 58.4695 80.4842 58.3232 80.1793C58.1768 79.8745 57.9717 79.638 57.7077 79.47C57.4437 79.299 57.1453 79.2136 56.8124 79.2136C56.4968 79.2136 56.2171 79.299 55.9732 79.47C55.7264 79.638 55.5327 79.8745 55.3921 80.1793C55.2544 80.4842 55.1855 80.8318 55.1855 81.2221C55.1855 81.6095 55.2544 81.9557 55.3921 82.2605C55.5327 82.5653 55.7235 82.8032 55.9645 82.9742C56.2084 83.1422 56.4868 83.2263 56.7995 83.2263ZM64.6845 83.8759H63.8926L63.8496 83.0041V81.0725C63.8496 80.6537 63.8037 80.309 63.7118 80.0383C63.6171 79.7648 63.4708 79.5568 63.2728 79.4144C63.072 79.272 62.8109 79.2007 62.4895 79.2007C62.1968 79.2007 61.9457 79.2591 61.7363 79.3759C61.5268 79.4927 61.3547 79.6794 61.2198 79.9358L60.4494 79.6366C60.5842 79.3888 60.7478 79.1751 60.94 78.9956C61.1323 78.8161 61.3575 78.6779 61.6158 78.5811C61.8711 78.4871 62.1624 78.4401 62.4895 78.4401C62.9888 78.4401 63.4005 78.5369 63.7247 78.7307C64.049 78.9244 64.2943 79.2107 64.4607 79.5896C64.6243 79.9685 64.7018 80.4372 64.6932 80.9956L64.6845 83.8759ZM62.2872 84.0041C61.6588 84.0041 61.1681 83.8602 60.8152 83.5724C60.4623 83.2847 60.2858 82.8873 60.2858 82.3802C60.2858 81.8417 60.4666 81.4286 60.8281 81.1409C61.1868 80.8531 61.6918 80.7092 62.3431 80.7092H63.8711V81.4229H62.5325C62.0333 81.4229 61.6789 81.5041 61.4694 81.6665C61.26 81.8289 61.1552 82.0625 61.1552 82.3673C61.1552 82.6437 61.2585 82.8616 61.4651 83.0212C61.6717 83.1807 61.9601 83.2605 62.3302 83.2605C62.6373 83.2605 62.9041 83.195 63.1308 83.0639C63.3603 82.9328 63.5368 82.7448 63.6602 82.4998C63.7864 82.2548 63.8496 81.9671 63.8496 81.6366H64.2111C64.2111 82.3574 64.0476 82.9314 63.7204 83.3588C63.3933 83.789 62.9156 84.0041 62.2872 84.0041ZM67.9255 84.0041C67.5324 84.0041 67.1895 83.9457 66.8968 83.8288C66.6042 83.712 66.3603 83.5582 66.1651 83.3673C65.97 83.1764 65.8294 82.967 65.7433 82.7391L66.4923 82.4314C66.6128 82.6707 66.795 82.8659 67.0389 83.0169C67.2799 83.165 67.5467 83.2391 67.8394 83.2391C68.1751 83.2391 68.4563 83.1736 68.683 83.0425C68.9126 82.9115 69.0273 82.7249 69.0273 82.4827C69.0273 82.2633 68.9427 82.0867 68.7734 81.9528C68.607 81.8189 68.3602 81.7092 68.0331 81.6238L67.5166 81.487C67.0317 81.3588 66.6544 81.1651 66.3846 80.9058C66.1121 80.6494 65.9758 80.3574 65.9758 80.0298C65.9758 79.5284 66.1422 79.1381 66.475 78.8589C66.8079 78.5797 67.3014 78.4401 67.9556 78.4401C68.2713 78.4401 68.5568 78.4856 68.8121 78.5768C69.0704 78.668 69.2913 78.7976 69.475 78.9657C69.6615 79.1309 69.7978 79.3261 69.8838 79.5512L69.1349 79.8845C69.0402 79.6423 68.8867 79.4685 68.6744 79.3631C68.4592 79.2549 68.1981 79.2007 67.8911 79.2007C67.564 79.2007 67.3071 79.2705 67.1206 79.4101C66.937 79.5469 66.8452 79.7392 66.8452 79.987C66.8452 80.1295 66.9212 80.2634 67.0733 80.3887C67.2282 80.5112 67.4549 80.611 67.7533 80.6879L68.287 80.8289C68.6371 80.9144 68.9298 81.0397 69.1651 81.205C69.4004 81.3702 69.5783 81.5597 69.6988 81.7733C69.8221 81.9842 69.8838 82.2106 69.8838 82.4528C69.8838 82.7719 69.7978 83.0482 69.6256 83.2818C69.4534 83.5155 69.221 83.6935 68.9283 83.816C68.6385 83.9414 68.3043 84.0041 67.9255 84.0041ZM74.5365 83.8759H73.68V76.4401H74.5365V83.8759ZM78.3757 84.0041C77.8535 84.0041 77.393 83.8858 76.9941 83.6494C76.5953 83.41 76.284 83.0824 76.0602 82.6665C75.8363 82.2477 75.7244 81.7662 75.7244 81.2221C75.7244 80.6751 75.8363 80.1936 76.0602 79.7776C76.284 79.3588 76.5939 79.0312 76.9898 78.7948C77.3858 78.5583 77.8406 78.4401 78.3542 78.4401C78.8535 78.4401 79.2853 78.5611 79.6497 78.8033C80.0113 79.0483 80.2925 79.3902 80.4933 79.8289C80.6913 80.2677 80.7903 80.7847 80.7903 81.3802H76.3743L76.5896 81.2007C76.5896 81.6252 76.6656 81.9898 76.8177 82.2947C76.9726 82.5995 77.1892 82.8303 77.4676 82.987C77.7459 83.1465 78.063 83.2263 78.4188 83.2263C78.7947 83.2263 79.1132 83.138 79.3743 82.9613C79.6354 82.7847 79.8377 82.5511 79.9811 82.2605L80.7171 82.6323C80.5823 82.9086 80.4029 83.1494 80.1791 83.3545C79.9524 83.5596 79.6885 83.7192 79.3872 83.8331C79.083 83.9471 78.7459 84.0041 78.3757 84.0041ZM76.6412 80.8375L76.4174 80.6665H80.106L79.8821 80.8503C79.8821 80.5084 79.8147 80.2135 79.6799 79.9657C79.545 79.7178 79.3628 79.5269 79.1332 79.393C78.9066 79.2591 78.6426 79.1922 78.3413 79.1922C78.0486 79.1922 77.7732 79.2591 77.5149 79.393C77.2538 79.5269 77.0429 79.7164 76.8822 79.9614C76.7215 80.2064 76.6412 80.4984 76.6412 80.8375ZM83.7429 84.0041C83.3526 84.0041 83.0112 83.9457 82.7185 83.8288C82.4258 83.712 82.1819 83.5582 81.9868 83.3673C81.7888 83.1764 81.6468 82.967 81.5607 82.7391L82.3096 82.4314C82.433 82.6707 82.6152 82.8659 82.8562 83.0169C83.1001 83.165 83.3684 83.2391 83.6611 83.2391C83.9939 83.2391 84.2751 83.1736 84.5047 83.0425C84.7314 82.9115 84.8447 82.7249 84.8447 82.4827C84.8447 82.2633 84.7615 82.0867 84.5951 81.9528C84.4287 81.8189 84.1805 81.7092 83.8505 81.6238L83.3383 81.487C82.8534 81.3588 82.4761 81.1651 82.2063 80.9058C81.9337 80.6494 81.7974 80.3574 81.7974 80.0298C81.7974 79.5284 81.9639 79.1381 82.2967 78.8589C82.6267 78.5797 83.1202 78.4401 83.7773 78.4401C84.0901 78.4401 84.3756 78.4856 84.6338 78.5768C84.8892 78.668 85.1101 78.7976 85.2966 78.9657C85.4803 79.1309 85.6151 79.3261 85.7012 79.5512L84.9523 79.8845C84.8605 79.6423 84.707 79.4685 84.4918 79.3631C84.2794 79.2549 84.0198 79.2007 83.7128 79.2007C83.3856 79.2007 83.1288 79.2705 82.9423 79.4101C82.7558 79.5469 82.6626 79.7392 82.6626 79.987C82.6626 80.1295 82.74 80.2634 82.895 80.3887C83.0471 80.5112 83.2737 80.611 83.575 80.6879L84.1087 80.8289C84.4588 80.9144 84.7515 81.0397 84.9868 81.205C85.222 81.3702 85.3999 81.5597 85.5205 81.7733C85.641 81.9842 85.7012 82.2106 85.7012 82.4528C85.7012 82.7719 85.6166 83.0482 85.4473 83.2818C85.2751 83.5155 85.0427 83.6935 84.75 83.816C84.4574 83.9414 84.1216 84.0041 83.7429 84.0041ZM90.4099 85.9997H89.5533V78.564H90.3539L90.4099 79.5426V85.9997ZM92.2176 84.0041C91.7671 84.0041 91.3725 83.8872 91.0339 83.6536C90.6954 83.42 90.4328 83.0924 90.2463 82.6707C90.0627 82.2491 89.9708 81.7662 89.9708 81.2221C89.9708 80.6694 90.0627 80.1836 90.2463 79.7648C90.4328 79.3489 90.6954 79.0241 91.0339 78.7905C91.3725 78.5569 91.7671 78.4401 92.2176 78.4401C92.6939 78.4401 93.1142 78.5569 93.4786 78.7905C93.843 79.0241 94.1271 79.3489 94.3308 79.7648C94.5317 80.1836 94.6321 80.6694 94.6321 81.2221C94.6321 81.7662 94.5317 82.2491 94.3308 82.6707C94.1271 83.0924 93.843 83.42 93.4786 83.6536C93.1142 83.8872 92.6939 84.0041 92.2176 84.0041ZM92.0239 83.2263C92.3596 83.2263 92.6566 83.1422 92.9148 82.9742C93.1759 82.8032 93.3839 82.5653 93.5389 82.2605C93.691 81.9557 93.767 81.6095 93.767 81.2221C93.767 80.8318 93.6938 80.4842 93.5475 80.1793C93.4012 79.8745 93.196 79.638 92.932 79.47C92.668 79.299 92.3682 79.2136 92.0325 79.2136C91.7197 79.2136 91.44 79.299 91.1932 79.47C90.9493 79.638 90.757 79.8745 90.6164 80.1793C90.4787 80.4842 90.4099 80.8318 90.4099 81.2221C90.4099 81.6095 90.4787 81.9557 90.6164 82.2605C90.757 82.5653 90.9479 82.8032 91.1889 82.9742C91.4328 83.1422 91.7111 83.2263 92.0239 83.2263ZM96.6765 80.9571L96.2935 80.9956C96.2935 80.4229 96.404 79.9585 96.6249 79.6024C96.8458 79.2435 97.1285 78.9771 97.4728 78.8033C97.82 78.6295 98.1858 78.5426 98.5703 78.5426V79.3418C98.2576 79.3418 97.9563 79.393 97.6665 79.4956C97.3767 79.5982 97.14 79.7662 96.9563 79.9999C96.7698 80.2335 96.6765 80.5526 96.6765 80.9571ZM96.6765 83.8759H95.82V78.564H96.6765V83.8759ZM100.344 83.8759H99.4914V78.564H100.344V83.8759ZM99.9304 77.3332C99.7869 77.3332 99.6621 77.2805 99.556 77.1751C99.4469 77.0697 99.3924 76.9458 99.3924 76.8033C99.3924 76.6552 99.4469 76.5298 99.556 76.4273C99.6621 76.3247 99.7869 76.2734 99.9304 76.2734C100.08 76.2734 100.206 76.3247 100.309 76.4273C100.412 76.5298 100.464 76.6552 100.464 76.8033C100.464 76.9458 100.412 77.0697 100.309 77.1751C100.206 77.2805 100.08 77.3332 99.9304 77.3332ZM102.315 83.8759H101.278L103.46 80.8289L105.001 78.564H106.016L103.981 81.4315L102.315 83.8759ZM106.141 83.8759H105.117L103.468 81.4315L101.415 78.564H102.431L103.981 80.8289L106.141 83.8759Z" fill="#232323"/>
</g>
<g clip-path="url(#clip2_11192_1674)">
<path d="M15.885 28.6706C14.0118 29.2709 12.2231 29.3846 10.5189 29.0117C8.81745 28.6379 7.31911 27.8548 6.02389 26.6622C4.73052 25.4661 3.77535 23.9192 3.15839 22.0213C2.54143 20.1235 2.40546 18.3139 2.75048 16.5928C3.09911 14.8735 3.85356 13.3683 5.01384 12.0775C6.17685 10.7857 7.69497 9.83963 9.5682 9.23932C10.939 8.80002 12.2736 8.63427 13.5719 8.74206C14.8703 8.84986 16.0779 9.1978 17.1948 9.78589C18.3125 10.3767 19.2799 11.1638 20.0971 12.1473L16.459 14.8265C15.985 14.2869 15.4429 13.8574 14.8326 13.5381C14.2222 13.2188 13.5829 13.0285 12.9148 12.9672C12.2493 12.905 11.5644 12.9868 10.8598 13.2126C9.86862 13.5303 9.06506 14.0542 8.44917 14.7845C7.83055 15.5156 7.44517 16.3845 7.29304 17.3913C7.14364 18.3971 7.25226 19.464 7.61891 20.5918C7.98556 21.7197 8.53109 22.6465 9.25549 23.3724C9.97716 24.0991 10.8114 24.5831 11.7583 24.8245C12.7015 25.0641 13.6769 25.0224 14.6845 24.6995C15.4245 24.4624 16.039 24.1173 16.5279 23.6642C17.0168 23.2112 17.3944 22.6755 17.6608 22.0573C17.9272 21.439 18.1128 20.7673 18.2178 20.0422L22.7416 20.1012C22.683 21.3863 22.3714 22.5983 21.807 23.7372C21.2398 24.8769 20.4585 25.8727 19.463 26.7246C18.4676 27.5765 17.2749 28.2252 15.885 28.6706Z" fill="#232323"/>
<path d="M34.0168 23.4991L29.6757 24.3699L25.7383 5.01758L30.0795 4.14686L34.0168 23.4991ZM42.9861 21.7002L38.6407 22.5717L37.2004 15.4926L41.5458 14.6211L42.9861 21.7002ZM41.5458 14.6211L37.2004 15.4926C37.0504 14.7554 36.8484 14.187 36.5944 13.7875C36.3376 13.3885 36.0312 13.12 35.6753 12.9821C35.3188 12.8415 34.9248 12.8042 34.4933 12.8704C33.6546 13.0212 33.0692 13.3741 32.7371 13.929C32.4051 14.4838 32.3368 15.2416 32.5322 16.2022L31.2244 16.4646C30.9278 15.0069 30.8991 13.7221 31.1384 12.6104C31.3748 11.4992 31.8238 10.5982 32.4854 9.90745C33.1475 9.21951 33.9792 8.77512 34.9804 8.57429C36.1139 8.34695 37.1061 8.38193 37.9569 8.67921C38.8112 8.97873 39.5219 9.55117 40.0891 10.3966C40.6591 11.2414 41.0904 12.3829 41.383 13.821L41.5458 14.6211Z" fill="#232323"/>
<path d="M55.2455 20.5459C53.7753 20.6937 52.443 20.5112 51.2486 19.9985C50.0543 19.4857 49.0797 18.7103 48.3249 17.6723C47.5727 16.6312 47.1232 15.3907 46.9763 13.9508C46.8274 12.491 47.0222 11.1771 47.5606 10.0091C48.0959 8.83849 48.8974 7.88882 49.9652 7.16008C51.0327 6.42851 52.3115 5.9878 53.8017 5.83797C55.1377 5.70364 56.3762 5.89983 57.5172 6.42654C58.6557 6.95637 59.6042 7.81598 60.3629 9.00537C61.1216 10.1948 61.5963 11.7248 61.7871 13.5956L51.1588 14.6642L51.5885 14.0841C51.6533 14.719 51.8418 15.267 52.1542 15.7281C52.4663 16.1864 52.8707 16.518 53.3674 16.7229C53.8642 16.9278 54.4052 17.0008 54.9904 16.942C55.687 16.872 56.2607 16.6582 56.7117 16.3008C57.1601 15.9464 57.4546 15.5259 57.5953 15.0393L61.6308 15.9651C61.3436 16.8817 60.8856 17.6651 60.2569 18.3153C59.6279 18.9627 58.8852 19.4712 58.0288 19.8408C57.1696 20.2107 56.2418 20.4457 55.2455 20.5459ZM51.5138 12.2489L51.0027 11.7333L57.336 11.0965L56.995 11.6978C56.9241 11.0034 56.7265 10.4649 56.4019 10.0823C56.0774 9.6997 55.699 9.43993 55.2669 9.30298C54.835 9.16887 54.4121 9.12262 53.9982 9.16424C53.5842 9.20586 53.1735 9.33592 52.7661 9.55442C52.3618 9.77547 52.0336 10.1063 51.7815 10.5468C51.5322 10.9871 51.443 11.5545 51.5138 12.2489Z" fill="#232323"/>
<path d="M78.0012 19.2004L66.1013 19.3367L66.0652 16.2344L72.3401 8.74341L65.9791 8.81624L65.9375 5.23535L77.8073 5.09945L77.8433 8.20174L71.5387 15.7187L77.9599 15.6452L78.0012 19.2004Z" fill="#232323"/>
<path d="M99.7347 20.7979L95.2201 20.276L97.0336 4.8124L91.2793 4.14711L91.7656 0L107.789 1.85252L107.303 5.99963L101.548 5.33434L99.7347 20.7979Z" fill="#232323"/>
<path d="M120.326 24.7651L116.271 23.9122L116.794 20.9075L117.623 17.0195C117.78 16.2837 117.853 15.6263 117.842 15.0473C117.83 14.4683 117.691 13.9862 117.424 13.601C117.157 13.2185 116.691 12.9574 116.025 12.8174C115.506 12.7082 115.026 12.7324 114.584 12.89C114.146 13.0482 113.742 13.3099 113.374 13.675L109.858 11.638C110.318 11.0213 110.881 10.4946 111.546 10.0579C112.211 9.62123 112.977 9.32229 113.845 9.16111C114.71 8.99656 115.671 9.02558 116.73 9.2482C118.173 9.55171 119.338 10.075 120.227 10.8182C121.112 11.5635 121.702 12.4667 121.998 13.5278C122.296 14.5894 122.306 15.7738 122.027 17.081L120.326 24.7651ZM112.42 23.447C110.772 23.1004 109.572 22.4636 108.819 21.5365C108.07 20.6099 107.838 19.475 108.125 18.1316C108.435 16.6796 109.139 15.6949 110.238 15.1776C111.334 14.6569 112.735 14.5758 114.439 14.9342L118.249 15.7358L117.66 18.495L115.492 18.0389C114.566 17.844 113.871 17.8334 113.409 18.007C112.944 18.1772 112.663 18.4922 112.565 18.9521C112.494 19.2837 112.591 19.5779 112.856 19.8346C113.121 20.0912 113.523 20.2763 114.062 20.3896C114.598 20.5024 115.094 20.4873 115.55 20.3444C116.006 20.1987 116.392 19.9581 116.707 19.6224C117.02 19.2835 117.225 18.884 117.323 18.4242L118.41 18.6527C118.017 20.4922 117.324 21.836 116.331 22.6841C115.335 23.5317 114.031 23.786 112.42 23.447Z" fill="#232323"/>
<path d="M131.011 28.1658C129.395 27.6844 128.308 26.9442 127.75 25.9451C127.193 24.9434 127.129 23.7316 127.559 22.31L131.674 8.69204L135.92 9.95699L132.124 22.5189C131.961 23.0592 131.94 23.4857 132.061 23.7984C132.186 24.1092 132.457 24.3268 132.875 24.4513C133.037 24.4996 133.239 24.5152 133.481 24.498C133.722 24.4835 133.952 24.4405 134.171 24.3691L134.713 27.8855C134.167 28.1156 133.554 28.2615 132.873 28.3235C132.192 28.3854 131.571 28.3328 131.011 28.1658ZM136.676 18.637L127.207 15.8161L128.277 12.2755L137.746 15.0965L136.676 18.637Z" fill="#232323"/>
<path d="M142.5 31.6713L138.337 30.1565L143.225 16.9156L147.388 18.4303L142.5 31.6713ZM145.931 15.9797C145.309 15.7533 144.849 15.3202 144.55 14.6805C144.251 14.0408 144.216 13.412 144.444 12.7941C144.685 12.1414 145.125 11.6748 145.763 11.3943C146.4 11.1165 147.03 11.0908 147.653 11.3173C148.291 11.5497 148.759 11.9749 149.057 12.5929C149.353 13.2136 149.381 13.8503 149.14 14.503C148.912 15.1209 148.48 15.5796 147.844 15.8791C147.207 16.1785 146.57 16.2121 145.931 15.9797Z" fill="#232323"/>
</g>
<defs>
<clipPath id="clip0_11192_1674">
<rect width="38.7364" height="32.7791" fill="white" transform="translate(55.6328 28.4746)"/>
</clipPath>
<clipPath id="clip1_11192_1674">
<rect width="68.981" height="9.7263" fill="white" transform="translate(37.1602 76.2734)"/>
</clipPath>
<clipPath id="clip2_11192_1674">
<rect width="150" height="31.7682" fill="white"/>
</clipPath>
</defs>
</svg>
