<svg width="27" height="27" viewBox="0 0 27 27" fill="none" xmlns="http://www.w3.org/2000/svg">
<g clip-path="url(#clip0_11192_1696)">
<path d="M10.3074 24.6147C10.9021 24.6147 11.3842 24.1326 11.3842 23.5378C11.3842 22.9431 10.9021 22.4609 10.3074 22.4609C9.71261 22.4609 9.23047 22.9431 9.23047 23.5378C9.23047 24.1326 9.71261 24.6147 10.3074 24.6147Z" stroke="#232323" strokeWidth="2.46145" stroke-linecap="round" stroke-linejoin="round"/>
<path d="M22.1511 24.6147C22.7459 24.6147 23.228 24.1326 23.228 23.5378C23.228 22.9431 22.7459 22.4609 22.1511 22.4609C21.5564 22.4609 21.0742 22.9431 21.0742 23.5378C21.0742 24.1326 21.5564 24.6147 22.1511 24.6147Z" stroke="#232323" strokeWidth="2.46145" stroke-linecap="round" stroke-linejoin="round"/>
<path d="M1.6875 2H5.99504L8.8811 16.4195C8.97957 16.9153 9.2493 17.3607 9.64305 17.6776C10.0368 17.9946 10.5295 18.163 11.0349 18.1533H21.5022C22.0076 18.163 22.5003 17.9946 22.894 17.6776C23.2878 17.3607 23.5575 16.9153 23.656 16.4195L25.379 7.38443H7.07193" stroke="#232323" strokeWidth="2.46145" stroke-linecap="round" stroke-linejoin="round"/>
</g>
<defs>
<clipPath id="clip0_11192_1696">
<rect width="25.8453" height="25.8453" fill="white" transform="translate(0.613281 0.923828)"/>
</clipPath>
</defs>
</svg>
