<svg width="30" height="30" viewBox="0 0 30 30" fill="none" xmlns="http://www.w3.org/2000/svg">
<path d="M3.08203 14.6663C3.08203 14.6663 7.49301 6.17432 15.2134 6.17432C22.9339 6.17432 27.3449 14.6663 27.3449 14.6663C27.3449 14.6663 22.9339 23.1583 15.2134 23.1583C7.49301 23.1583 3.08203 14.6663 3.08203 14.6663Z" stroke="#1A1A1A" strokeWidth="2.18365" strokeLinecap="round" strokeLinejoin="round"/>
<path d="M15.2097 18.3057C16.175 18.3057 17.1007 17.9223 17.7832 17.2397C18.4657 16.5572 18.8492 15.6315 18.8492 14.6663C18.8492 13.701 18.4657 12.7753 17.7832 12.0928C17.1007 11.4103 16.175 11.0269 15.2097 11.0269C14.2445 11.0269 13.3188 11.4103 12.6363 12.0928C11.9538 12.7753 11.5703 13.701 11.5703 14.6663C11.5703 15.6315 11.9538 16.5572 12.6363 17.2397C13.3188 17.9223 14.2445 18.3057 15.2097 18.3057V18.3057Z" stroke="#1A1A1A" strokeWidth="2.18365" strokeLinecap="round" strokeLinejoin="round"/>
</svg>
