<svg width="29" height="30" viewBox="0 0 29 30" fill="none" xmlns="http://www.w3.org/2000/svg">
<path d="M28.8921 15.282C28.8921 14.3172 28.8123 13.3471 28.6421 12.3979H14.9844V17.8635H22.8055C22.481 19.6263 21.4381 21.1856 19.9112 22.1765V25.7229H24.5772C27.3173 23.2509 28.8921 19.6002 28.8921 15.282Z" fill="#4285F4"/>
<path d="M14.9902 29.1493C18.8955 29.1493 22.1889 27.8924 24.5884 25.7229L19.9223 22.1765C18.6241 23.0423 16.9482 23.5325 14.9955 23.5325C11.218 23.5325 8.01506 21.0344 6.86583 17.6758H2.05078V21.3317C4.50885 26.1245 9.51544 29.1493 14.9902 29.1493Z" fill="#34A853"/>
<path d="M6.85782 17.6761C6.25129 15.9133 6.25129 14.0046 6.85782 12.2418V8.58594H2.0481C-0.00561521 12.5965 -0.00561521 17.3215 2.0481 21.332L6.85782 17.6761Z" fill="#FBBC04"/>
<path d="M14.9902 6.37949C17.0546 6.34819 19.0498 7.10962 20.5448 8.5073L24.6789 4.45506C22.0612 2.04562 18.5869 0.720953 14.9902 0.762675C9.51544 0.762675 4.50885 3.78751 2.05078 8.58553L6.86051 12.2414C8.00442 8.87758 11.2127 6.37949 14.9902 6.37949Z" fill="#EA4335"/>
</svg>
