<svg width="30" height="30" viewBox="0 0 30 30" fill="none" xmlns="http://www.w3.org/2000/svg">
<path d="M8.61015 10.0775C8.61015 6.6789 11.3652 3.92383 14.7638 3.92383C18.1623 3.92383 20.9174 6.6789 20.9174 10.0775C20.9174 13.476 18.1623 16.2311 14.7638 16.2311C11.3652 16.2311 8.61015 13.476 8.61015 10.0775ZM14.7638 13.7696C16.8029 13.7696 18.456 12.1166 18.456 10.0775C18.456 8.03833 16.8029 6.38528 14.7638 6.38528C12.7246 6.38528 11.0716 8.03833 11.0716 10.0775C11.0716 12.1166 12.7246 13.7696 14.7638 13.7696Z" fill="#232323"/>
<path d="M7.80174 20.3456C5.95529 22.192 4.91797 24.6964 4.91797 27.3076H7.37942C7.37942 25.3492 8.15742 23.4709 9.54225 22.0861C10.9271 20.7013 12.8053 19.9233 14.7638 19.9233C16.7222 19.9233 18.6005 20.7013 19.9853 22.0861C21.3702 23.4709 22.1481 25.3492 22.1481 27.3076H24.6096C24.6096 24.6964 23.5723 22.192 21.7258 20.3456C19.8794 18.4991 17.3751 17.4618 14.7638 17.4618C12.1525 17.4618 9.64819 18.4991 7.80174 20.3456Z" fill="#232323"/>
</svg>
